<?xml version="1.0" standalone="no"?>
<!DOCTYPE svg PUBLIC "-//W3C//DTD SVG 20010904//EN"
 "http://www.w3.org/TR/2001/REC-SVG-20010904/DTD/svg10.dtd">
<svg version="1.0" xmlns="http://www.w3.org/2000/svg"
 width="600.000000pt" height="400.000000pt" viewBox="0 0 600.000000 400.000000"
 preserveAspectRatio="xMidYMid meet">
<g transform="translate(0.000000,400.000000) scale(0.100000,-0.100000)"
fill="#000000" stroke="none">
<path d="M2800 3026 c-53 -15 -103 -39 -146 -72 -30 -22 -35 -23 -87 -12 -66
14 -161 2 -249 -32 -121 -45 -237 -164 -267 -272 -10 -36 -19 -47 -45 -56 -17
-7 -57 -34 -88 -62 -107 -95 -164 -260 -140 -403 39 -225 207 -375 442 -394
l76 -6 18 -43 c69 -167 322 -253 563 -192 44 11 45 10 86 -29 23 -22 64 -55
90 -74 58 -40 107 -104 147 -193 44 -96 95 -122 172 -88 59 26 76 64 59 130
-6 26 -16 64 -22 86 -5 21 -8 40 -7 41 2 1 28 -1 58 -5 116 -16 261 31 339
109 46 46 86 119 96 177 4 21 14 46 21 55 12 13 9 18 -29 39 -23 13 -91 51
-152 85 -60 34 -225 126 -365 205 -140 79 -257 145 -260 148 -3 2 5 11 18 20
13 8 163 118 335 245 219 161 311 234 309 246 -7 33 -66 113 -116 157 -109 96
-275 146 -382 115 -27 -8 -38 -5 -75 20 -95 64 -277 88 -399 55z m255 -68 c22
-6 57 -19 78 -29 l38 -20 -29 -24 c-68 -57 -110 -200 -58 -200 20 0 24 5 52
73 54 132 215 169 380 88 66 -33 174 -129 174 -155 0 -5 -15 -21 -32 -34 -308
-228 -584 -425 -628 -447 -87 -44 -184 -70 -325 -86 -183 -21 -246 -44 -322
-116 -41 -40 -43 -41 -94 -34 -102 14 -163 54 -194 129 -27 66 -31 72 -51 72
-26 0 -30 -46 -9 -101 32 -85 150 -164 246 -164 26 0 27 -1 18 -32 -5 -18 -9
-46 -9 -62 l0 -29 -72 6 c-165 13 -290 104 -349 254 -31 80 -31 204 0 285 78
203 323 278 406 125 18 -34 18 -35 -3 -64 -29 -41 -37 -77 -19 -91 21 -17 40
-7 62 34 30 56 68 77 149 83 68 6 71 7 71 31 0 22 -6 26 -47 34 -34 7 -58 5
-91 -6 l-46 -15 -23 35 c-37 57 -88 91 -156 105 l-62 13 22 44 c65 131 249
231 400 217 77 -7 151 -48 186 -103 28 -46 64 -58 76 -28 8 21 -34 94 -74 127
l-30 26 33 19 c96 57 210 71 332 40z m237 -943 c74 -41 104 -63 97 -70 -6 -6
-59 -9 -132 -8 -147 3 -190 -7 -302 -74 -80 -48 -80 -48 -165 -46 -47 1 -98 3
-115 5 -25 2 -31 -1 -33 -20 -5 -33 53 -55 150 -55 82 -1 75 -3 271 101 44 23
59 25 190 26 113 1 149 5 174 19 18 9 37 17 42 17 17 0 343 -186 343 -196 0
-26 -71 -33 -252 -28 -224 7 -257 2 -490 -76 -196 -66 -292 -85 -395 -77 -211
16 -344 143 -314 300 25 135 133 202 364 226 126 14 203 32 278 65 l52 23 65
-36 c36 -20 114 -63 172 -96z m523 -412 c-39 -95 -131 -163 -245 -184 -128
-23 -244 21 -307 115 -18 27 -33 52 -33 56 0 4 28 13 63 21 61 14 144 16 362
9 66 -2 120 1 135 8 39 17 41 15 25 -25z m-626 -78 c22 -42 77 -100 113 -121
9 -5 26 -47 38 -94 36 -137 36 -138 5 -152 -38 -17 -54 -3 -97 86 -41 82 -116
166 -200 223 -27 18 -48 37 -48 42 0 9 122 58 150 60 8 0 26 -19 39 -44z"/>
<path d="M3567 2432 l-347 -255 142 -80 c79 -44 269 -152 423 -239 l280 -158
39 42 c21 24 50 66 63 94 43 94 46 240 7 316 -8 16 -14 58 -14 105 -1 93 -12
147 -46 220 -28 58 -123 167 -171 194 l-28 17 -348 -256z m406 127 c27 -28 63
-81 80 -117 29 -60 32 -77 33 -167 2 -80 6 -110 25 -150 33 -74 31 -170 -5
-252 -51 -112 -36 -112 -268 17 -387 216 -519 292 -514 297 3 3 74 56 158 119
141 104 153 112 158 91 4 -16 13 -22 34 -22 39 0 54 25 40 64 -11 29 -11 30
85 99 53 39 102 71 110 71 8 1 37 -22 64 -50z m-283 -138 c0 -11 -4 -23 -10
-26 -6 -4 -10 5 -10 19 0 14 5 26 10 26 6 0 10 -9 10 -19z"/>
<path d="M3740 2455 c0 -8 5 -15 10 -15 6 0 10 -16 10 -35 0 -24 5 -35 15 -35
11 0 15 12 15 50 0 47 -2 50 -25 50 -16 0 -25 -6 -25 -15z"/>
<path d="M3834 2458 c-4 -6 -2 -14 4 -16 7 -2 12 -19 12 -38 0 -24 5 -34 15
-34 11 0 15 12 15 50 0 43 -3 50 -19 50 -11 0 -23 -5 -27 -12z"/>
<path d="M3934 2458 c-4 -6 -2 -14 4 -16 7 -2 12 -19 12 -38 0 -24 5 -34 15
-34 11 0 15 12 15 50 0 43 -3 50 -19 50 -11 0 -23 -5 -27 -12z"/>
<path d="M3543 2323 c-15 -6 -17 -33 -3 -33 6 0 10 -16 10 -35 0 -24 5 -35 15
-35 12 0 15 13 15 55 0 55 -5 61 -37 48z"/>
<path d="M3636 2314 c-29 -28 -13 -94 22 -94 27 0 42 20 42 55 0 50 -33 71
-64 39z m34 -39 c0 -14 -4 -25 -10 -25 -5 0 -10 11 -10 25 0 14 5 25 10 25 6
0 10 -11 10 -25z"/>
<path d="M3739 2313 c-11 -13 -11 -17 -1 -20 6 -3 12 -20 12 -39 0 -24 5 -34
15 -34 12 0 15 13 15 55 0 58 -14 71 -41 38z"/>
<path d="M3829 2314 c-11 -13 -11 -18 -1 -21 6 -3 12 -20 12 -39 0 -28 4 -34
21 -34 18 0 20 5 17 52 -3 57 -23 74 -49 42z"/>
<path d="M3933 2318 c-27 -35 -13 -98 22 -98 21 0 45 29 45 55 0 42 -45 71
-67 43z m37 -43 c0 -8 -4 -17 -10 -20 -6 -4 -10 5 -10 20 0 15 4 24 10 20 6
-3 10 -12 10 -20z"/>
<path d="M3543 2173 c-15 -6 -17 -33 -3 -33 6 0 10 -16 10 -35 0 -24 5 -35 15
-35 12 0 15 13 15 55 0 55 -5 61 -37 48z"/>
<path d="M3629 2163 c-11 -13 -11 -17 -1 -20 6 -3 12 -20 12 -39 0 -24 5 -34
15 -34 12 0 15 13 15 55 0 58 -14 71 -41 38z"/>
<path d="M3722 2168 c-17 -17 -15 -73 3 -88 22 -18 48 -8 59 22 19 53 -27 101
-62 66z m38 -43 c0 -14 -4 -25 -10 -25 -5 0 -10 11 -10 25 0 14 5 25 10 25 6
0 10 -11 10 -25z"/>
<path d="M3832 2168 c-20 -20 -15 -86 7 -93 27 -8 50 4 57 32 13 51 -31 94
-64 61z m38 -37 c0 -11 -4 -23 -10 -26 -6 -4 -10 5 -10 19 0 14 5 26 10 26 6
0 10 -9 10 -19z"/>
<path d="M3943 2173 c-15 -6 -17 -33 -3 -33 6 0 10 -16 10 -35 0 -24 5 -35 15
-35 12 0 15 13 15 55 0 55 -5 61 -37 48z"/>
<path d="M3810 1984 c0 -28 3 -35 18 -32 11 2 18 14 20 36 3 27 0 32 -17 32
-17 0 -21 -6 -21 -36z"/>
</g>
</svg>
